<mxfile host="app.diagrams.net" modified="2021-06-03T09:55:58.088Z" agent="5.0 (Macintosh)" etag="iSaBQVyOTZkfWXHVBumj" version="14.7.4" type="github">
  <diagram id="EVZrFt1r1atZXmSjvw7J" name="Page-1">
    <mxGraphModel dx="1666" dy="831" grid="1" gridSize="10" guides="1" tooltips="1" connect="1" arrows="1" fold="1" page="1" pageScale="1" pageWidth="827" pageHeight="1169" math="0" shadow="0">
      <root>
        <mxCell id="0" />
        <mxCell id="1" parent="0" />
        <mxCell id="fz1JVw6y3OA5qOB74j5y-1" value="" style="rounded=0;whiteSpace=wrap;html=1;shadow=0;strokeColor=#990000;" parent="1" vertex="1">
          <mxGeometry x="750" y="140" width="370" height="440" as="geometry" />
        </mxCell>
        <mxCell id="fz1JVw6y3OA5qOB74j5y-2" value="" style="rounded=0;whiteSpace=wrap;html=1;shadow=0;strokeColor=#3333FF;" parent="1" vertex="1">
          <mxGeometry x="120" y="140" width="620" height="440" as="geometry" />
        </mxCell>
        <mxCell id="fz1JVw6y3OA5qOB74j5y-3" value="" style="edgeStyle=orthogonalEdgeStyle;rounded=0;orthogonalLoop=1;jettySize=auto;html=1;" parent="1" source="fz1JVw6y3OA5qOB74j5y-4" target="fz1JVw6y3OA5qOB74j5y-6" edge="1">
          <mxGeometry relative="1" as="geometry" />
        </mxCell>
        <mxCell id="fz1JVw6y3OA5qOB74j5y-4" value="Function 1" style="rounded=1;whiteSpace=wrap;html=1;" parent="1" vertex="1">
          <mxGeometry x="160" y="470" width="120" height="60" as="geometry" />
        </mxCell>
        <mxCell id="fz1JVw6y3OA5qOB74j5y-5" value="" style="edgeStyle=orthogonalEdgeStyle;rounded=0;orthogonalLoop=1;jettySize=auto;html=1;" parent="1" source="fz1JVw6y3OA5qOB74j5y-6" target="fz1JVw6y3OA5qOB74j5y-8" edge="1">
          <mxGeometry relative="1" as="geometry" />
        </mxCell>
        <mxCell id="fz1JVw6y3OA5qOB74j5y-6" value="Function 3" style="whiteSpace=wrap;html=1;rounded=1;" parent="1" vertex="1">
          <mxGeometry x="360" y="470" width="120" height="60" as="geometry" />
        </mxCell>
        <mxCell id="fz1JVw6y3OA5qOB74j5y-7" value="" style="edgeStyle=orthogonalEdgeStyle;rounded=0;orthogonalLoop=1;jettySize=auto;html=1;" parent="1" source="fz1JVw6y3OA5qOB74j5y-8" target="fz1JVw6y3OA5qOB74j5y-10" edge="1">
          <mxGeometry relative="1" as="geometry" />
        </mxCell>
        <mxCell id="fz1JVw6y3OA5qOB74j5y-8" value="Function 7" style="whiteSpace=wrap;html=1;rounded=1;" parent="1" vertex="1">
          <mxGeometry x="560" y="470" width="120" height="60" as="geometry" />
        </mxCell>
        <mxCell id="fz1JVw6y3OA5qOB74j5y-9" value="" style="edgeStyle=orthogonalEdgeStyle;rounded=0;orthogonalLoop=1;jettySize=auto;html=1;" parent="1" source="fz1JVw6y3OA5qOB74j5y-10" target="fz1JVw6y3OA5qOB74j5y-11" edge="1">
          <mxGeometry relative="1" as="geometry" />
        </mxCell>
        <mxCell id="fz1JVw6y3OA5qOB74j5y-10" value="Function 8" style="whiteSpace=wrap;html=1;rounded=1;" parent="1" vertex="1">
          <mxGeometry x="770" y="470" width="120" height="60" as="geometry" />
        </mxCell>
        <mxCell id="fz1JVw6y3OA5qOB74j5y-11" value="Function 10" style="whiteSpace=wrap;html=1;rounded=1;" parent="1" vertex="1">
          <mxGeometry x="960" y="470" width="120" height="60" as="geometry" />
        </mxCell>
        <mxCell id="fz1JVw6y3OA5qOB74j5y-12" value="" style="endArrow=classic;html=1;" parent="1" target="fz1JVw6y3OA5qOB74j5y-4" edge="1">
          <mxGeometry width="50" height="50" relative="1" as="geometry">
            <mxPoint x="70" y="500" as="sourcePoint" />
            <mxPoint x="510" y="470" as="targetPoint" />
          </mxGeometry>
        </mxCell>
        <mxCell id="fz1JVw6y3OA5qOB74j5y-13" value="Flow3" style="text;html=1;strokeColor=none;fillColor=none;align=center;verticalAlign=middle;whiteSpace=wrap;rounded=0;" parent="1" vertex="1">
          <mxGeometry x="290" y="510" width="50" height="20" as="geometry" />
        </mxCell>
        <mxCell id="fz1JVw6y3OA5qOB74j5y-14" value="Function 2" style="rounded=1;whiteSpace=wrap;html=1;" parent="1" vertex="1">
          <mxGeometry x="130" y="330" width="90" height="40" as="geometry" />
        </mxCell>
        <mxCell id="fz1JVw6y3OA5qOB74j5y-15" value="" style="edgeStyle=segmentEdgeStyle;endArrow=classic;html=1;exitX=1;exitY=0.5;exitDx=0;exitDy=0;entryX=0.883;entryY=0.033;entryDx=0;entryDy=0;entryPerimeter=0;" parent="1" source="fz1JVw6y3OA5qOB74j5y-14" target="fz1JVw6y3OA5qOB74j5y-4" edge="1">
          <mxGeometry width="50" height="50" relative="1" as="geometry">
            <mxPoint x="460" y="520" as="sourcePoint" />
            <mxPoint x="510" y="470" as="targetPoint" />
          </mxGeometry>
        </mxCell>
        <mxCell id="fz1JVw6y3OA5qOB74j5y-16" value="Function 4" style="rounded=1;whiteSpace=wrap;html=1;" parent="1" vertex="1">
          <mxGeometry x="280" y="390" width="90" height="40" as="geometry" />
        </mxCell>
        <mxCell id="fz1JVw6y3OA5qOB74j5y-17" value="" style="endArrow=classic;html=1;exitX=0.5;exitY=1;exitDx=0;exitDy=0;" parent="1" source="fz1JVw6y3OA5qOB74j5y-16" edge="1">
          <mxGeometry width="50" height="50" relative="1" as="geometry">
            <mxPoint x="460" y="520" as="sourcePoint" />
            <mxPoint x="325" y="500" as="targetPoint" />
          </mxGeometry>
        </mxCell>
        <mxCell id="fz1JVw6y3OA5qOB74j5y-18" value="Flow 2" style="text;html=1;strokeColor=none;fillColor=none;align=center;verticalAlign=middle;whiteSpace=wrap;rounded=0;" parent="1" vertex="1">
          <mxGeometry x="220" y="320" width="90" height="20" as="geometry" />
        </mxCell>
        <mxCell id="fz1JVw6y3OA5qOB74j5y-19" value="Function 5" style="rounded=1;whiteSpace=wrap;html=1;" parent="1" vertex="1">
          <mxGeometry x="350" y="330" width="90" height="40" as="geometry" />
        </mxCell>
        <mxCell id="fz1JVw6y3OA5qOB74j5y-20" value="" style="edgeStyle=segmentEdgeStyle;endArrow=classic;html=1;exitX=1;exitY=0.5;exitDx=0;exitDy=0;entryX=0.892;entryY=-0.033;entryDx=0;entryDy=0;entryPerimeter=0;" parent="1" source="fz1JVw6y3OA5qOB74j5y-19" target="fz1JVw6y3OA5qOB74j5y-6" edge="1">
          <mxGeometry width="50" height="50" relative="1" as="geometry">
            <mxPoint x="440" y="340" as="sourcePoint" />
            <mxPoint x="485.96000000000004" y="461.98" as="targetPoint" />
          </mxGeometry>
        </mxCell>
        <mxCell id="fz1JVw6y3OA5qOB74j5y-21" value="Flow 10" style="text;html=1;strokeColor=none;fillColor=none;align=center;verticalAlign=middle;whiteSpace=wrap;rounded=0;" parent="1" vertex="1">
          <mxGeometry x="530" y="180" width="90" height="20" as="geometry" />
        </mxCell>
        <mxCell id="fz1JVw6y3OA5qOB74j5y-22" value="Function 6" style="rounded=1;whiteSpace=wrap;html=1;" parent="1" vertex="1">
          <mxGeometry x="480" y="390" width="90" height="40" as="geometry" />
        </mxCell>
        <mxCell id="fz1JVw6y3OA5qOB74j5y-23" value="" style="endArrow=classic;html=1;exitX=0.5;exitY=1;exitDx=0;exitDy=0;" parent="1" edge="1">
          <mxGeometry width="50" height="50" relative="1" as="geometry">
            <mxPoint x="520" y="430" as="sourcePoint" />
            <mxPoint x="520" y="500" as="targetPoint" />
          </mxGeometry>
        </mxCell>
        <mxCell id="fz1JVw6y3OA5qOB74j5y-24" value="Flow 4" style="text;html=1;strokeColor=none;fillColor=none;align=center;verticalAlign=middle;whiteSpace=wrap;rounded=0;" parent="1" vertex="1">
          <mxGeometry x="490" y="510" width="50" height="20" as="geometry" />
        </mxCell>
        <mxCell id="fz1JVw6y3OA5qOB74j5y-25" value="Flow 5" style="text;html=1;strokeColor=none;fillColor=none;align=center;verticalAlign=middle;whiteSpace=wrap;rounded=0;" parent="1" vertex="1">
          <mxGeometry x="680" y="510" width="50" height="20" as="geometry" />
        </mxCell>
        <mxCell id="fz1JVw6y3OA5qOB74j5y-26" value="Function 8" style="rounded=1;whiteSpace=wrap;html=1;" parent="1" vertex="1">
          <mxGeometry x="550" y="330" width="90" height="40" as="geometry" />
        </mxCell>
        <mxCell id="fz1JVw6y3OA5qOB74j5y-27" value="" style="edgeStyle=segmentEdgeStyle;endArrow=classic;html=1;exitX=1;exitY=0.5;exitDx=0;exitDy=0;entryX=0.892;entryY=-0.033;entryDx=0;entryDy=0;entryPerimeter=0;" parent="1" edge="1">
          <mxGeometry width="50" height="50" relative="1" as="geometry">
            <mxPoint x="640" y="351.98" as="sourcePoint" />
            <mxPoint x="667.04" y="470" as="targetPoint" />
          </mxGeometry>
        </mxCell>
        <mxCell id="fz1JVw6y3OA5qOB74j5y-28" value="Flow 12" style="text;html=1;strokeColor=none;fillColor=none;align=center;verticalAlign=middle;whiteSpace=wrap;rounded=0;" parent="1" vertex="1">
          <mxGeometry x="640" y="330" width="90" height="20" as="geometry" />
        </mxCell>
        <mxCell id="fz1JVw6y3OA5qOB74j5y-29" value="Flow 6" style="text;html=1;strokeColor=none;fillColor=none;align=center;verticalAlign=middle;whiteSpace=wrap;rounded=0;" parent="1" vertex="1">
          <mxGeometry x="890" y="510" width="50" height="20" as="geometry" />
        </mxCell>
        <mxCell id="fz1JVw6y3OA5qOB74j5y-30" value="Flow 1" style="text;html=1;strokeColor=none;fillColor=none;align=center;verticalAlign=middle;whiteSpace=wrap;rounded=0;" parent="1" vertex="1">
          <mxGeometry x="60" y="510" width="50" height="20" as="geometry" />
        </mxCell>
        <mxCell id="fz1JVw6y3OA5qOB74j5y-31" value="Function 9" style="rounded=1;whiteSpace=wrap;html=1;" parent="1" vertex="1">
          <mxGeometry x="760" y="330" width="90" height="40" as="geometry" />
        </mxCell>
        <mxCell id="fz1JVw6y3OA5qOB74j5y-32" value="" style="edgeStyle=segmentEdgeStyle;endArrow=classic;html=1;exitX=1;exitY=0.5;exitDx=0;exitDy=0;entryX=0.892;entryY=-0.033;entryDx=0;entryDy=0;entryPerimeter=0;" parent="1" source="fz1JVw6y3OA5qOB74j5y-31" edge="1">
          <mxGeometry width="50" height="50" relative="1" as="geometry">
            <mxPoint x="865" y="330" as="sourcePoint" />
            <mxPoint x="867.04" y="468.02" as="targetPoint" />
            <Array as="points">
              <mxPoint x="880" y="350" />
              <mxPoint x="880" y="468" />
            </Array>
          </mxGeometry>
        </mxCell>
        <mxCell id="fz1JVw6y3OA5qOB74j5y-33" value="Function 11" style="rounded=1;whiteSpace=wrap;html=1;" parent="1" vertex="1">
          <mxGeometry x="960" y="330" width="90" height="40" as="geometry" />
        </mxCell>
        <mxCell id="fz1JVw6y3OA5qOB74j5y-34" value="" style="edgeStyle=segmentEdgeStyle;endArrow=classic;html=1;exitX=1;exitY=0.5;exitDx=0;exitDy=0;entryX=0.892;entryY=-0.033;entryDx=0;entryDy=0;entryPerimeter=0;" parent="1" edge="1">
          <mxGeometry width="50" height="50" relative="1" as="geometry">
            <mxPoint x="1050" y="350.99" as="sourcePoint" />
            <mxPoint x="1077.04" y="469.01" as="targetPoint" />
          </mxGeometry>
        </mxCell>
        <mxCell id="fz1JVw6y3OA5qOB74j5y-35" value="Flow 8" style="text;html=1;strokeColor=none;fillColor=none;align=center;verticalAlign=middle;whiteSpace=wrap;rounded=0;" parent="1" vertex="1">
          <mxGeometry x="1030" y="330" width="90" height="20" as="geometry" />
        </mxCell>
        <mxCell id="fz1JVw6y3OA5qOB74j5y-36" value="" style="endArrow=classic;html=1;" parent="1" edge="1">
          <mxGeometry width="50" height="50" relative="1" as="geometry">
            <mxPoint x="1080" y="499.5" as="sourcePoint" />
            <mxPoint x="1230" y="500" as="targetPoint" />
          </mxGeometry>
        </mxCell>
        <mxCell id="fz1JVw6y3OA5qOB74j5y-37" value="Flow 7" style="text;html=1;strokeColor=none;fillColor=none;align=center;verticalAlign=middle;whiteSpace=wrap;rounded=0;" parent="1" vertex="1">
          <mxGeometry x="1150" y="510" width="50" height="20" as="geometry" />
        </mxCell>
        <mxCell id="fz1JVw6y3OA5qOB74j5y-38" value="Function 12" style="rounded=1;whiteSpace=wrap;html=1;" parent="1" vertex="1">
          <mxGeometry x="960" y="240" width="90" height="40" as="geometry" />
        </mxCell>
        <mxCell id="fz1JVw6y3OA5qOB74j5y-39" value="" style="endArrow=classic;html=1;exitX=0.5;exitY=0;exitDx=0;exitDy=0;entryX=0.5;entryY=1;entryDx=0;entryDy=0;" parent="1" source="fz1JVw6y3OA5qOB74j5y-33" target="fz1JVw6y3OA5qOB74j5y-38" edge="1">
          <mxGeometry width="50" height="50" relative="1" as="geometry">
            <mxPoint x="590" y="440" as="sourcePoint" />
            <mxPoint x="640" y="390" as="targetPoint" />
          </mxGeometry>
        </mxCell>
        <mxCell id="fz1JVw6y3OA5qOB74j5y-40" value="Flow 9" style="text;html=1;strokeColor=none;fillColor=none;align=center;verticalAlign=middle;whiteSpace=wrap;rounded=0;" parent="1" vertex="1">
          <mxGeometry x="1000" y="300" width="90" height="20" as="geometry" />
        </mxCell>
        <mxCell id="fz1JVw6y3OA5qOB74j5y-41" value="" style="edgeStyle=segmentEdgeStyle;endArrow=classic;html=1;exitX=0.5;exitY=0;exitDx=0;exitDy=0;entryX=0.5;entryY=0;entryDx=0;entryDy=0;" parent="1" source="fz1JVw6y3OA5qOB74j5y-38" target="fz1JVw6y3OA5qOB74j5y-14" edge="1">
          <mxGeometry width="50" height="50" relative="1" as="geometry">
            <mxPoint x="450" y="360" as="sourcePoint" />
            <mxPoint x="90" y="340" as="targetPoint" />
            <Array as="points">
              <mxPoint x="1005" y="200" />
              <mxPoint x="175" y="200" />
            </Array>
          </mxGeometry>
        </mxCell>
        <mxCell id="fz1JVw6y3OA5qOB74j5y-42" value="Flow 13" style="text;html=1;strokeColor=none;fillColor=none;align=center;verticalAlign=middle;whiteSpace=wrap;rounded=0;" parent="1" vertex="1">
          <mxGeometry x="450" y="330" width="90" height="20" as="geometry" />
        </mxCell>
        <mxCell id="fz1JVw6y3OA5qOB74j5y-43" value="Flow 11" style="text;html=1;strokeColor=none;fillColor=none;align=center;verticalAlign=middle;whiteSpace=wrap;rounded=0;" parent="1" vertex="1">
          <mxGeometry x="840" y="330" width="90" height="20" as="geometry" />
        </mxCell>
        <mxCell id="fz1JVw6y3OA5qOB74j5y-44" value="&lt;font style=&quot;font-size: 14px&quot;&gt;Stakeholder 1&lt;/font&gt;" style="text;html=1;strokeColor=none;fillColor=none;align=center;verticalAlign=middle;whiteSpace=wrap;rounded=0;shadow=0;" parent="1" vertex="1">
          <mxGeometry y="330" width="100" height="50" as="geometry" />
        </mxCell>
        <mxCell id="fz1JVw6y3OA5qOB74j5y-45" value="&lt;font style=&quot;font-size: 14px&quot;&gt;Stakeholder 2&lt;font style=&quot;font-size: 14px&quot;&gt;&lt;b&gt;&lt;br&gt;&lt;/b&gt;&lt;/font&gt;&lt;/font&gt;" style="text;html=1;strokeColor=none;fillColor=none;align=center;verticalAlign=middle;whiteSpace=wrap;rounded=0;shadow=0;" parent="1" vertex="1">
          <mxGeometry x="1140" y="325" width="110" height="50" as="geometry" />
        </mxCell>
      </root>
    </mxGraphModel>
  </diagram>
</mxfile>
